<svg viewBox="0 0 1394.19 1348.29" xmlns="http://www.w3.org/2000/svg"><g transform="translate(-192.04 -160.81)"><g fill="#080f18"><path d="m208.58 1507.27a3.92 3.92 0 0 1 -3.9-3.9v-103.08a3.86 3.86 0 0 1 3.9-3.83h37.5a40.47 40.47 0 0 1 22.8 6.43 30.72 30.72 0 0 1 14.12 26.11c0 9.56-4 16.6-12 21.12q15.38 10.32 15.38 24.33a31.19 31.19 0 0 1 -14.31 26.4c-6.5 4.29-14.23 6.43-23 6.43zm37.5-65.66a18.47 18.47 0 0 0 10.56-2.9 12.09 12.09 0 0 0 0-19.44 17.91 17.91 0 0 0 -10.56-3h-20v25.33zm2.91 45.76a18.56 18.56 0 0 0 10.86-3 12.33 12.33 0 0 0 0-19.9 18.56 18.56 0 0 0 -10.86-3h-22.88v25.86z"/><path d="m338.26 1504.67a3.67 3.67 0 0 1 -3.67 2.6h-14.54a3.31 3.31 0 0 1 -3.21-1.68 4.53 4.53 0 0 1 -.46-2.07 13.62 13.62 0 0 1 1.07-3.9l36.55-100.62a3.8 3.8 0 0 1 3.6-2.53h18.74a3.71 3.71 0 0 1 3.66 2.53l36.5 100.63a13.62 13.62 0 0 1 1.07 3.9 4.53 4.53 0 0 1 -.46 2.07 3.31 3.31 0 0 1 -3.21 1.68h-14.57a3.68 3.68 0 0 1 -3.68-2.6l-8.87-25.1h-39.64zm41.48-45-12.74-36.35-12.86 36.35z"/><path d="m451 1437.25a30.11 30.11 0 0 1 -2.06-11 31.27 31.27 0 0 1 3.67-15.15c5.74-10.87 16.45-16.3 32-16.3 12.62 0 23.64 3.29 33 9.8a3.83 3.83 0 0 1 1.83 3.36 3.39 3.39 0 0 1 -.53 1.84l-6.05 10.48a3.82 3.82 0 0 1 -3.36 2 3.64 3.64 0 0 1 -2.3-.76 54.24 54.24 0 0 0 -9.49-5.13 32.69 32.69 0 0 0 -13.08-2.91 17.91 17.91 0 0 0 -9.57 2.38c-3.14 2-4.67 4.59-4.67 7.72 0 5 3.75 10 11.33 14.62 2.68 1.61 6 3.44 10 5.66 8.19 4.52 14.08 8.34 17.83 11.56a27.63 27.63 0 0 1 7.81 11.25 29.9 29.9 0 0 1 2.06 11 31.27 31.27 0 0 1 -3.67 15.15c-5.74 10.86-16.45 16.3-32 16.3q-18.94 0-33-9.8a3.83 3.83 0 0 1 -1.83-3.36 3.39 3.39 0 0 1 .53-1.84l6.05-10.48a3.81 3.81 0 0 1 3.36-2 3.59 3.59 0 0 1 2.3.77 56.12 56.12 0 0 0 9.41 5.13 33.6 33.6 0 0 0 13.17 2.91c4.51 0 8-1.08 10.48-3.14s3.75-4.29 3.75-7c0-5-2.91-9.33-8.8-13.16-2.91-1.76-6.81-4.05-11.79-6.73q-12.86-7-18.59-11.94a27.73 27.73 0 0 1 -7.79-11.23z"/><path d="m562.88 1507.27a3.92 3.92 0 0 1 -3.9-3.9v-103.08a3.86 3.86 0 0 1 3.9-3.83h13.62a3.86 3.86 0 0 1 3.9 3.83v103.08a3.92 3.92 0 0 1 -3.9 3.9z"/><path d="m650.63 1504.74a47.49 47.49 0 0 1 -18-13.39 53.41 53.41 0 0 1 -10-18.52 71.78 71.78 0 0 1 0-41.93 53.25 53.25 0 0 1 10-18.6 47.39 47.39 0 0 1 18-13.31 55.78 55.78 0 0 1 22-4.28 73.62 73.62 0 0 1 18.52 2.44 63.37 63.37 0 0 1 17.14 7.27 3.87 3.87 0 0 1 1.84 3.37 3.46 3.46 0 0 1 -.54 1.91l-6.12 10.49a3.57 3.57 0 0 1 -3.45 1.91 3.75 3.75 0 0 1 -2.14-.69 36.72 36.72 0 0 0 -12.09-5.43 52 52 0 0 0 -13.31-1.76 29.88 29.88 0 0 0 -13.78 3.06 28.8 28.8 0 0 0 -10.71 9.26c-4.74 6.81-7.12 15.23-7.12 25.33s2.38 18.44 7.12 25.25c5.82 8.26 14 12.4 24.64 12.4a52.21 52.21 0 0 0 13.16-1.76 36.53 36.53 0 0 0 12.09-5.44 3.75 3.75 0 0 1 2.14-.69 3.58 3.58 0 0 1 3.45 1.92l6.12 10.48a3.49 3.49 0 0 1 .54 1.92 3.84 3.84 0 0 1 -1.84 3.29 63.46 63.46 0 0 1 -17.14 7.34 73.18 73.18 0 0 1 -18.52 2.45 55.61 55.61 0 0 1 -22-4.29z"/><path d="m800.57 1437.25a29.91 29.91 0 0 1 -2.07-11 31.27 31.27 0 0 1 3.68-15.15c5.74-10.87 16.45-16.3 32-16.3 12.63 0 23.65 3.29 33 9.8a3.82 3.82 0 0 1 1.84 3.36 3.39 3.39 0 0 1 -.53 1.84l-6.05 10.48a3.83 3.83 0 0 1 -3.37 2 3.63 3.63 0 0 1 -2.29-.76 54.24 54.24 0 0 0 -9.49-5.13 32.73 32.73 0 0 0 -13.09-2.91 17.87 17.87 0 0 0 -9.56 2.38c-3.14 2-4.67 4.59-4.67 7.72 0 5 3.75 10 11.32 14.62 2.68 1.61 6 3.44 10 5.66 8.19 4.52 14.08 8.34 17.83 11.56a27.61 27.61 0 0 1 7.8 11.25 29.91 29.91 0 0 1 2.07 11 31.27 31.27 0 0 1 -3.67 15.15c-5.74 10.86-16.45 16.3-32 16.3q-18.95 0-33-9.8a3.84 3.84 0 0 1 -1.84-3.36 3.4 3.4 0 0 1 .54-1.84l6-10.48a3.84 3.84 0 0 1 3.37-2 3.61 3.61 0 0 1 2.3.77 55.72 55.72 0 0 0 9.41 5.13 33.51 33.51 0 0 0 13.16 2.91c4.52 0 8-1.08 10.48-3.14s3.75-4.29 3.75-7c0-5-2.9-9.33-8.8-13.16-2.9-1.76-6.81-4.05-11.78-6.73q-12.86-7-18.59-11.94a27.54 27.54 0 0 1 -7.75-11.23z"/><path d="m912.5 1507.27a3.92 3.92 0 0 1 -3.91-3.9v-103.08a3.86 3.86 0 0 1 3.91-3.83h65.19a3.86 3.86 0 0 1 3.91 3.83v12.09a3.92 3.92 0 0 1 -3.91 3.9h-47.69v25.18h43.16a3.87 3.87 0 0 1 3.9 3.9v12.09a3.87 3.87 0 0 1 -3.9 3.91h-43.16v26h47.67a3.92 3.92 0 0 1 3.91 3.91v12.09a3.92 3.92 0 0 1 -3.91 3.9z"/><path d="m1085.26 1507.27a3.69 3.69 0 0 1 -3.37-1.91l-25.25-43.85h-13.54v41.86a3.86 3.86 0 0 1 -3.83 3.9h-13.7a3.92 3.92 0 0 1 -3.9-3.9v-103.08a3.86 3.86 0 0 1 3.9-3.83h37.57a40.5 40.5 0 0 1 22.81 6.43 31.49 31.49 0 0 1 10.33 40.94 32.39 32.39 0 0 1 -17.6 14.92l24.56 42.7a3.52 3.52 0 0 1 .61 1.92 3.94 3.94 0 0 1 -.61 2 3.51 3.51 0 0 1 -3.36 1.91zm-22.12-65.66a18.53 18.53 0 0 0 10.57-2.9 12.21 12.21 0 0 0 0-19.44 18 18 0 0 0 -10.57-3h-20v25.33z"/><path d="m1173.23 1507.27a3.57 3.57 0 0 1 -3.67-2.53q-37.77-103.65-37.72-104.45a3.64 3.64 0 0 1 .68-2.22 3.74 3.74 0 0 1 3.22-1.61h14.46a3.55 3.55 0 0 1 3.67 2.61l28.7 81.26 28.7-81.26a3.67 3.67 0 0 1 3.67-2.61h14.54a3.7 3.7 0 0 1 3.14 1.61 3.6 3.6 0 0 1 .76 2.22q0 .81-37.8 104.45a3.6 3.6 0 0 1 -3.6 2.53z"/><path d="m1271 1507.27a3.92 3.92 0 0 1 -3.9-3.9v-103.08a3.86 3.86 0 0 1 3.9-3.83h13.62a3.86 3.86 0 0 1 3.91 3.83v103.08a3.92 3.92 0 0 1 -3.91 3.9z"/><path d="m1358.75 1504.74a47.49 47.49 0 0 1 -18-13.39 53.23 53.23 0 0 1 -10-18.52 71.56 71.56 0 0 1 0-41.93 53.06 53.06 0 0 1 10-18.6 47.39 47.39 0 0 1 18-13.31 55.82 55.82 0 0 1 22-4.28 73.62 73.62 0 0 1 18.52 2.44 63.37 63.37 0 0 1 17.14 7.27 3.85 3.85 0 0 1 1.84 3.37 3.46 3.46 0 0 1 -.54 1.91l-6.12 10.49a3.56 3.56 0 0 1 -3.44 1.91 3.76 3.76 0 0 1 -2.15-.69 36.63 36.63 0 0 0 -12-5.41 52 52 0 0 0 -13.31-1.76 29.81 29.81 0 0 0 -13.77 3.06 28.83 28.83 0 0 0 -10.72 9.26c-4.74 6.81-7.11 15.23-7.11 25.33s2.37 18.44 7.11 25.25c5.82 8.26 14 12.4 24.64 12.4a52.21 52.21 0 0 0 13.16-1.76 36.43 36.43 0 0 0 12.09-5.44 3.76 3.76 0 0 1 2.15-.69 3.57 3.57 0 0 1 3.44 1.92l6.12 10.48a3.49 3.49 0 0 1 .54 1.92 3.81 3.81 0 0 1 -1.84 3.29 63.46 63.46 0 0 1 -17.14 7.34 73.18 73.18 0 0 1 -18.52 2.45 55.64 55.64 0 0 1 -22.09-4.31z"/><path d="m1459.51 1507.27a3.92 3.92 0 0 1 -3.9-3.9v-103.08a3.86 3.86 0 0 1 3.9-3.83h65.2a3.86 3.86 0 0 1 3.9 3.83v12.09a3.92 3.92 0 0 1 -3.9 3.9h-47.71v25.18h43.16a3.87 3.87 0 0 1 3.9 3.9v12.09a3.87 3.87 0 0 1 -3.9 3.91h-43.16v26h47.68a3.92 3.92 0 0 1 3.9 3.91v12.09a3.92 3.92 0 0 1 -3.9 3.9z"/></g><path d="m748.88 1148.3a460.17 460.17 0 0 1 -52.34-6.25c-7.12-1.26-14.22-2.69-21.25-4.38-10.19-2.44-20.46-4.44-30.54-7.33-24.84-7.1-48.59-17.53-71.67-29-19.61-9.78-39.06-19.93-57.36-32-35.52-23.48-68.37-52.08-95.39-85-20.73-25.28-39.36-54.7-47-86.89a2.41 2.41 0 0 1 -3.37-2.19v-19.79a2 2 0 0 1 0-.35l-.82-313.9h-138c-8.3 33.2-14.28 71.07-21 97l79.55 61.35c-3.53 12.46-6.58 25.18-9 38.19-.84 4.46-1.44 8.94-2.1 13.39l-85.27 25.76a492.62 492.62 0 0 0 5.58 118.36l87.4 17.47a413 413 0 0 0 16.15 50.26l-60.79 64.89a496.74 496.74 0 0 0 64.13 99.66l84.21-28.5a422 422 0 0 0 39 35.55l-20.26 86.62a490.52 490.52 0 0 0 105.4 54.19l58.62-66.83c12.46 3.51 25.15 6.57 38.14 9 4.46.84 8.92 1.46 13.39 2.13l25.89 85.29a489.56 489.56 0 0 0 110.7-4.32v-171.83q-6.01-.18-12-.55z" fill="#623cea"/><path d="m418 655.57q46.1-69.77 120.26-110.89t163.85-41.12q71 0 132.7 26.79a343.11 343.11 0 0 1 180.67 180.65q26.77 61.68 26.79 132.7t-26.79 132.7a353.55 353.55 0 0 1 -72.89 108.4 340.31 340.31 0 0 1 -107.78 73.52q-61.68 26.81-132.7 26.79-67.29 0-126.47-24.3a347.27 347.27 0 0 1 -213.64-288.43v-681.57h56zm544.51 77.88q-22.44-51.69-60.44-89.71t-89.71-60.43q-51.72-22.44-110.27-22.43t-110.25 22.43a294.46 294.46 0 0 0 -90.34 60.43q-38.62 38-61.05 89.71t-22.45 110.27q0 58.58 22.45 110.28a287 287 0 0 0 151.39 151.39q51.69 22.42 110.27 22.43t110.27-22.43q51.69-22.43 89.71-61.05a294.66 294.66 0 0 0 60.44-90.34q22.47-51.7 22.47-110.28t-22.47-110.27z" fill="#080f18" stroke="#080f18" stroke-miterlimit="10" stroke-width="60"/><path d="m1222.41 869.79a181.23 181.23 0 0 1 -71.27-14.26 191.75 191.75 0 0 1 -59.39-39.06 177.52 177.52 0 0 1 -40-58.28q-14.4-33.48-14.38-71.93t14.38-71.92a184.75 184.75 0 0 1 40-58.9 187.12 187.12 0 0 1 59.39-39.68 181.59 181.59 0 0 1 71.27-14.26h333.81v55.8h-333.81a128.64 128.64 0 0 0 -50 9.92 123.4 123.4 0 0 0 -41.26 27.9 134 134 0 0 0 -27.51 41.54 128 128 0 0 0 27.51 140.13 130.14 130.14 0 0 0 91.27 37.2h148.78a181.36 181.36 0 0 1 71.26 14.26 186.34 186.34 0 0 1 99.4 98.58 180.59 180.59 0 0 1 14.37 71.92 177.5 177.5 0 0 1 -14.37 70.68 186.34 186.34 0 0 1 -99.4 98.58 181.18 181.18 0 0 1 -71.26 14.26h-333.83v-55.8h333.82a130.09 130.09 0 0 0 91.26-37.2 128 128 0 0 0 27.55-140.12 134.43 134.43 0 0 0 -27.51-41.54 123.56 123.56 0 0 0 -41.25-27.9 128.61 128.61 0 0 0 -50-9.92z" fill="#080f18" stroke="#080f18" stroke-miterlimit="10" stroke-width="60"/></g></svg>