<svg width="24" height="24" viewBox="0 0 24 24" fill="none" xmlns="http://www.w3.org/2000/svg">
<g clip-path="url(#clip0)">
<path d="M8 2C5.43639 2.00731 2.97349 2.99891 1.12 4.77V3C1.12 2.73478 1.01464 2.48043 0.827107 2.29289C0.63957 2.10536 0.385216 2 0.12 2C-0.145217 2 -0.39957 2.10536 -0.587107 2.29289C-0.774643 2.48043 -0.88 2.73478 -0.88 3V7.5C-0.88 7.76522 -0.774643 8.01957 -0.587107 8.20711C-0.39957 8.39464 -0.145217 8.5 0.12 8.5H4.62C4.88522 8.5 5.13957 8.39464 5.32711 8.20711C5.51464 8.01957 5.62 7.76522 5.62 7.5C5.62 7.23478 5.51464 6.98043 5.32711 6.79289C5.13957 6.60536 4.88522 6.5 4.62 6.5H2.22C3.50578 5.15636 5.21951 4.30265 7.06653 4.08567C8.91356 3.86868 10.7785 4.30198 12.3407 5.31104C13.9028 6.32011 15.0646 7.84191 15.6263 9.61479C16.188 11.3877 16.1145 13.3009 15.4184 15.0254C14.7223 16.7499 13.4472 18.1781 11.8122 19.0643C10.1772 19.9505 8.28449 20.2394 6.45956 19.8813C4.63463 19.5232 2.99147 18.5405 1.81259 17.1022C0.633716 15.6638 -0.00721347 13.8597 0 12C0 11.7348 -0.105357 11.4804 -0.292893 11.2929C-0.48043 11.1054 -0.734784 11 -1 11C-1.26522 11 -1.51957 11.1054 -1.70711 11.2929C-1.89464 11.4804 -2 11.7348 -2 12C-2 13.9778 -1.41351 15.9112 -0.314696 17.5557C0.784118 19.2002 2.3459 20.4819 4.17317 21.2388C6.00043 21.9957 8.01109 22.1937 9.9509 21.8079C11.8907 21.422 13.6725 20.4696 15.0711 19.0711C16.4696 17.6725 17.422 15.8907 17.8079 13.9509C18.1937 12.0111 17.9957 10.0004 17.2388 8.17317C16.4819 6.3459 15.2002 4.78412 13.5557 3.6853C11.9112 2.58649 9.97781 2 8 2ZM8 8C7.73478 8 7.48043 8.10536 7.29289 8.29289C7.10536 8.48043 7 8.73478 7 9V12C7 12.2652 7.10536 12.5196 7.29289 12.7071C7.48043 12.8946 7.73478 13 8 13H10C10.2652 13 10.5196 12.8946 10.7071 12.7071C10.8946 12.5196 11 12.2652 11 12C11 11.7348 10.8946 11.4804 10.7071 11.2929C10.5196 11.1054 10.2652 11 10 11H9V9C9 8.73478 8.89464 8.48043 8.70711 8.29289C8.51957 8.10536 8.26522 8 8 8Z" fill="#00E244"/>
</g>
<defs>
<clipPath id="clip0">
<rect width="24" height="24" fill="white"/>
</clipPath>
</defs>
</svg>
