<svg width="21" height="20" viewBox="0 0 21 20" fill="none" xmlns="http://www.w3.org/2000/svg">
<path fill-rule="evenodd" clip-rule="evenodd" d="M10.0029 0C7.24067 0 5.00142 2.23858 5.00142 5C5.00142 7.76142 7.24067 10 10.0029 10C12.7652 10 15.0044 7.76142 15.0044 5C15.0044 2.23858 12.7652 0 10.0029 0ZM18.0054 14.76L19.8959 18.55C20.0519 18.8595 20.0365 19.2277 19.8551 19.5231C19.6738 19.8185 19.3524 19.999 19.0057 20H1.00021C0.653508 19.999 0.332075 19.8185 0.150712 19.5231C-0.0306511 19.2277 -0.0460797 18.8595 0.109937 18.55L2.00051 14.76C2.84848 13.0683 4.57907 12.0001 6.47186 12H13.534C15.4268 12.0001 17.1574 13.0683 18.0054 14.76Z" fill="#7114FF"/>
</svg>
